<?xml version="1.0" encoding="utf-8"?>
<!-- Generator: Adobe Illustrator 26.0.1, SVG Export Plug-In . SVG Version: 6.00 Build 0)  -->
<svg version="1.1" id="Layer_1" xmlns="http://www.w3.org/2000/svg" xmlns:xlink="http://www.w3.org/1999/xlink" x="0px" y="0px"
	 viewBox="0 0 1024 1024" style="enable-background:new 0 0 1024 1024;" xml:space="preserve">
<style type="text/css">
	.st0{fill:#020000;}
	.st1{fill:#FFFFFF;}
</style>
<rect class="st0" width="1024" height="1024"/>
<g>
	<g>
		<g>
			<g>
				<path class="st1" d="M887.14,503.67v42.69h12.01v-49.9C894.64,501.35,890.07,503.07,887.14,503.67z"/>
			</g>
			<g>
				<g>
					<path class="st1" d="M892.98,490.48c-0.94-4.53-3.69-7.14-8.27-7.83c4.53-0.95,7.13-3.7,7.82-8.28
						c0.93,4.5,3.67,7.12,8.27,7.82C896.27,483.15,893.66,485.91,892.98,490.48z"/>
				</g>
			</g>
			<g>
				<path class="st1" d="M899.15,496.46v-2.78c0,0-5.9,8.17-12.01,6.97v3.02l3.85,3.94l4.53-2.72L899.15,496.46z"/>
			</g>
		</g>
		<g>
			<path class="st1" d="M329.79,546.5h-10.54c-1.18,0-2.15-0.3-2.91-0.89s-1.31-1.32-1.65-2.2l-5.47-14.94h-30.34l-5.47,14.94
				c-0.27,0.78-0.8,1.49-1.6,2.13c-0.79,0.64-1.76,0.96-2.91,0.96h-10.59l28.77-73.24h13.93L329.79,546.5z M282.38,518.84h23.35
				l-8.91-24.36c-0.41-1.08-0.85-2.36-1.34-3.82c-0.49-1.47-0.97-3.06-1.44-4.79c-0.47,1.72-0.94,3.33-1.39,4.81
				c-0.46,1.49-0.9,2.79-1.34,3.9L282.38,518.84z"/>
			<path class="st1" d="M373.15,505.52c-0.37,0.47-0.73,0.84-1.09,1.11c-0.35,0.27-0.87,0.41-1.54,0.41c-0.64,0-1.27-0.19-1.87-0.58
				c-0.61-0.39-1.33-0.83-2.18-1.32c-0.84-0.49-1.85-0.93-3.01-1.32s-2.61-0.58-4.33-0.58c-2.2,0-4.12,0.4-5.77,1.19
				c-1.66,0.79-3.03,1.93-4.13,3.42c-1.1,1.49-1.92,3.28-2.46,5.39c-0.54,2.11-0.81,4.5-0.81,7.17c0,2.77,0.29,5.23,0.89,7.39
				c0.59,2.16,1.44,3.98,2.56,5.45c1.11,1.47,2.46,2.58,4.05,3.34s3.38,1.14,5.37,1.14s3.6-0.24,4.84-0.73
				c1.23-0.49,2.27-1.03,3.11-1.62c0.84-0.59,1.58-1.13,2.2-1.62c0.62-0.49,1.32-0.73,2.1-0.73c1.01,0,1.77,0.39,2.28,1.17l3.6,4.56
				c-1.39,1.62-2.89,2.98-4.51,4.08s-3.3,1.98-5.04,2.63c-1.74,0.66-3.54,1.12-5.39,1.39c-1.86,0.27-3.7,0.41-5.52,0.41
				c-3.21,0-6.23-0.6-9.07-1.8s-5.31-2.95-7.42-5.24c-2.11-2.3-3.78-5.11-5.01-8.43c-1.23-3.33-1.85-7.12-1.85-11.37
				c0-3.82,0.55-7.35,1.65-10.61c1.1-3.26,2.71-6.08,4.84-8.46s4.76-4.25,7.9-5.6c3.14-1.35,6.75-2.03,10.84-2.03
				c3.88,0,7.29,0.63,10.21,1.87c2.92,1.25,5.55,3.04,7.88,5.37L373.15,505.52z"/>
			<path class="st1" d="M421.47,505.52c-0.37,0.47-0.73,0.84-1.09,1.11c-0.35,0.27-0.87,0.41-1.54,0.41c-0.64,0-1.27-0.19-1.87-0.58
				c-0.61-0.39-1.33-0.83-2.18-1.32c-0.84-0.49-1.85-0.93-3.01-1.32s-2.61-0.58-4.33-0.58c-2.2,0-4.12,0.4-5.77,1.19
				c-1.66,0.79-3.03,1.93-4.13,3.42c-1.1,1.49-1.92,3.28-2.46,5.39c-0.54,2.11-0.81,4.5-0.81,7.17c0,2.77,0.29,5.23,0.89,7.39
				c0.59,2.16,1.44,3.98,2.56,5.45c1.11,1.47,2.46,2.58,4.05,3.34s3.38,1.14,5.37,1.14s3.6-0.24,4.84-0.73
				c1.23-0.49,2.27-1.03,3.11-1.62c0.84-0.59,1.58-1.13,2.2-1.62c0.62-0.49,1.32-0.73,2.1-0.73c1.01,0,1.77,0.39,2.28,1.17l3.6,4.56
				c-1.39,1.62-2.89,2.98-4.51,4.08s-3.3,1.98-5.04,2.63c-1.74,0.66-3.54,1.12-5.39,1.39c-1.86,0.27-3.7,0.41-5.52,0.41
				c-3.21,0-6.23-0.6-9.07-1.8s-5.31-2.95-7.42-5.24c-2.11-2.3-3.78-5.11-5.01-8.43c-1.23-3.33-1.85-7.12-1.85-11.37
				c0-3.82,0.55-7.35,1.65-10.61c1.1-3.26,2.71-6.08,4.84-8.46s4.76-4.25,7.9-5.6c3.14-1.35,6.75-2.03,10.84-2.03
				c3.88,0,7.29,0.63,10.21,1.87c2.92,1.25,5.55,3.04,7.88,5.37L421.47,505.52z"/>
			<path class="st1" d="M455.45,493.72c3.88,0,7.4,0.63,10.56,1.87c3.16,1.25,5.85,3.02,8.08,5.32c2.23,2.3,3.95,5.1,5.17,8.41
				s1.82,7.01,1.82,11.09c0,4.12-0.61,7.83-1.82,11.14c-1.22,3.31-2.94,6.13-5.17,8.46s-4.92,4.12-8.08,5.37
				c-3.16,1.25-6.68,1.87-10.56,1.87s-7.41-0.63-10.59-1.87c-3.17-1.25-5.88-3.04-8.13-5.37s-3.99-5.15-5.22-8.46
				s-1.85-7.02-1.85-11.14c0-4.09,0.62-7.78,1.85-11.09c1.23-3.31,2.97-6.11,5.22-8.41c2.25-2.3,4.95-4.07,8.13-5.32
				C448.04,494.34,451.57,493.72,455.45,493.72z M455.45,537.63c4.32,0,7.52-1.45,9.6-4.36c2.08-2.9,3.12-7.16,3.12-12.76
				c0-5.6-1.04-9.88-3.12-12.81c-2.08-2.94-5.28-4.41-9.6-4.41c-4.39,0-7.63,1.48-9.72,4.43c-2.09,2.96-3.14,7.22-3.14,12.79
				s1.05,9.82,3.14,12.74C447.82,536.17,451.06,537.63,455.45,537.63z"/>
			<path class="st1" d="M502.31,494.53v33.02c0,3.17,0.73,5.63,2.2,7.37s3.67,2.61,6.61,2.61c2.16,0,4.19-0.48,6.08-1.44
				c1.89-0.96,3.68-2.29,5.37-3.98v-37.58h12.51v51.97h-7.65c-1.62,0-2.68-0.76-3.19-2.28l-0.86-4.15c-1.08,1.08-2.2,2.07-3.34,2.96
				c-1.15,0.9-2.37,1.66-3.67,2.28c-1.3,0.63-2.7,1.11-4.2,1.47c-1.5,0.35-3.12,0.53-4.84,0.53c-2.84,0-5.34-0.48-7.52-1.44
				s-4.01-2.32-5.5-4.08s-2.61-3.84-3.37-6.26c-0.76-2.41-1.14-5.07-1.14-7.98v-33.02L502.31,494.53L502.31,494.53z"/>
			<path class="st1" d="M548.45,546.5v-51.97h7.65c1.62,0,2.68,0.76,3.19,2.28l0.86,4.1c1.05-1.08,2.15-2.06,3.32-2.94
				s2.4-1.64,3.7-2.28c1.3-0.64,2.69-1.13,4.18-1.47c1.48-0.34,3.11-0.51,4.86-0.51c2.84,0,5.35,0.48,7.55,1.44s4.03,2.31,5.5,4.05
				s2.58,3.82,3.34,6.23s1.14,5.07,1.14,7.98v33.08h-12.51v-33.08c0-3.17-0.73-5.63-2.2-7.37c-1.47-1.74-3.67-2.61-6.61-2.61
				c-2.16,0-4.19,0.49-6.08,1.47s-3.68,2.31-5.37,4v37.58h-12.52V546.5z"/>
			<path class="st1" d="M623.11,547.31c-4.49,0-7.95-1.27-10.38-3.82s-3.65-6.07-3.65-10.56v-29.02h-5.27
				c-0.68,0-1.26-0.22-1.75-0.66s-0.73-1.1-0.73-1.98v-4.96l8.36-1.37l2.63-14.18c0.13-0.68,0.45-1.2,0.94-1.57s1.11-0.56,1.85-0.56
				h6.48v16.36h13.68v8.91h-13.68v28.16c0,1.62,0.41,2.89,1.22,3.8s1.89,1.37,3.24,1.37c0.78,0,1.43-0.09,1.95-0.28
				s0.98-0.38,1.37-0.58c0.39-0.2,0.74-0.4,1.04-0.58s0.61-0.28,0.91-0.28c0.37,0,0.67,0.09,0.91,0.28s0.49,0.46,0.76,0.84
				l3.75,6.08c-1.82,1.52-3.92,2.67-6.28,3.44C628.09,546.92,625.64,547.31,623.11,547.31z"/>
			<path class="st1" d="M685.96,546.5h-5.62c-1.18,0-2.11-0.18-2.79-0.53c-0.68-0.35-1.18-1.07-1.52-2.15l-1.11-3.7
				c-1.32,1.18-2.61,2.22-3.87,3.12c-1.27,0.9-2.58,1.65-3.93,2.25c-1.35,0.61-2.79,1.06-4.3,1.37c-1.52,0.3-3.21,0.46-5.07,0.46
				c-2.2,0-4.22-0.3-6.08-0.89c-1.86-0.59-3.45-1.48-4.79-2.67c-1.33-1.19-2.37-2.66-3.11-4.42s-1.12-3.81-1.12-6.15
				c0-1.96,0.51-3.9,1.55-5.82c1.03-1.91,2.74-3.64,5.14-5.18s5.59-2.82,9.57-3.84c3.98-1.02,8.93-1.52,14.84-1.52v-3.06
				c0-3.5-0.74-6.1-2.2-7.78c-1.47-1.68-3.61-2.53-6.41-2.53c-2.03,0-3.72,0.24-5.07,0.71c-1.35,0.47-2.53,1.01-3.52,1.6
				c-1,0.59-1.92,1.12-2.76,1.6c-0.84,0.47-1.77,0.71-2.79,0.71c-0.84,0-1.57-0.22-2.18-0.66s-1.1-0.98-1.47-1.62l-2.28-4
				c5.98-5.47,13.19-8.21,21.63-8.21c3.04,0,5.75,0.5,8.13,1.49c2.38,1,4.4,2.38,6.05,4.15c1.65,1.77,2.91,3.89,3.77,6.36
				c0.86,2.47,1.29,5.17,1.29,8.1v32.81H685.96z M661.65,538.7c1.28,0,2.46-0.12,3.55-0.35c1.08-0.23,2.1-0.58,3.06-1.05
				c0.96-0.47,1.89-1.04,2.79-1.72c0.89-0.68,1.8-1.49,2.71-2.42v-8.7c-3.65,0-6.69,0.23-9.14,0.69c-2.45,0.46-4.42,1.05-5.9,1.76
				c-1.49,0.71-2.54,1.55-3.17,2.5c-0.62,0.95-0.94,1.99-0.94,3.11c0,2.21,0.65,3.79,1.95,4.74
				C657.86,538.22,659.56,538.7,661.65,538.7z"/>
			<path class="st1" d="M698.27,546.5v-51.97h7.65c1.62,0,2.69,0.76,3.19,2.28l0.86,4.1c1.05-1.08,2.15-2.06,3.32-2.94
				s2.4-1.64,3.7-2.28c1.3-0.64,2.69-1.13,4.18-1.47s3.11-0.51,4.86-0.51c2.84,0,5.35,0.48,7.55,1.44s4.03,2.31,5.5,4.05
				s2.58,3.82,3.34,6.23s1.14,5.07,1.14,7.98v33.08h-12.51v-33.08c0-3.17-0.74-5.63-2.2-7.37c-1.47-1.74-3.67-2.61-6.61-2.61
				c-2.16,0-4.19,0.49-6.08,1.47s-3.68,2.31-5.37,4v37.58h-12.52V546.5z"/>
			<path class="st1" d="M772.93,547.31c-4.49,0-7.95-1.27-10.38-3.82s-3.65-6.07-3.65-10.56v-29.02h-5.27
				c-0.68,0-1.26-0.22-1.75-0.66s-0.73-1.1-0.73-1.98v-4.96l8.36-1.37l2.63-14.18c0.13-0.68,0.45-1.2,0.94-1.57s1.11-0.56,1.85-0.56
				h6.48v16.36h13.68v8.91h-13.68v28.16c0,1.62,0.41,2.89,1.22,3.8s1.89,1.37,3.24,1.37c0.78,0,1.43-0.09,1.95-0.28
				s0.98-0.38,1.37-0.58c0.39-0.2,0.74-0.4,1.04-0.58s0.61-0.28,0.91-0.28c0.37,0,0.67,0.09,0.91,0.28s0.49,0.46,0.76,0.84
				l3.75,6.08c-1.82,1.52-3.92,2.67-6.28,3.44C777.91,546.92,775.46,547.31,772.93,547.31z"/>
			<path class="st1" d="M792.08,539.61c0-1.05,0.19-2.04,0.58-2.99c0.39-0.95,0.93-1.76,1.62-2.43c0.69-0.68,1.51-1.22,2.46-1.62
				c0.95-0.41,1.96-0.61,3.04-0.61c1.05,0,2.04,0.2,2.99,0.61c0.94,0.41,1.76,0.95,2.43,1.62c0.68,0.68,1.22,1.49,1.62,2.43
				c0.41,0.95,0.61,1.94,0.61,2.99c0,1.08-0.2,2.09-0.61,3.01c-0.41,0.93-0.95,1.73-1.62,2.41s-1.49,1.21-2.43,1.6
				c-0.95,0.39-1.94,0.58-2.99,0.58c-1.08,0-2.09-0.19-3.04-0.58c-0.95-0.39-1.76-0.92-2.46-1.6c-0.69-0.67-1.23-1.48-1.62-2.41
				C792.27,541.69,792.08,540.69,792.08,539.61z"/>
			<path class="st1" d="M882.94,546.5H872.4c-1.18,0-2.15-0.3-2.91-0.89c-0.76-0.59-1.31-1.32-1.65-2.2l-5.47-14.94h-30.34
				l-5.47,14.94c-0.27,0.78-0.8,1.49-1.6,2.13c-0.79,0.64-1.76,0.96-2.91,0.96h-10.59l28.77-73.24h13.93L882.94,546.5z
				 M835.54,518.84h23.35l-8.91-24.36c-0.41-1.08-0.85-2.36-1.34-3.82c-0.49-1.47-0.97-3.06-1.44-4.79
				c-0.47,1.72-0.94,3.33-1.39,4.81c-0.46,1.49-0.9,2.79-1.34,3.9L835.54,518.84z"/>
		</g>
	</g>
	<g>
		<g>
			<path class="st1" d="M159.07,480.13v18.5c0,0,27.94,3.39,44.36,12.61c16.42,9.22,20.6,14.84,22.9,17.43
				c2.3,2.59,5.76,10.08-2.3,12.1s-14.39,0-14.39,0l-6.93,9.51c0,0,23.04,6.05,31.69-2.02c8.64-8.07,7.2-15.56,5.19-21.32
				c-1.45-4.14-8.7-14.23-22.29-23.76c-7.66-5.36-16.06-9.56-24.9-12.6C182.27,487.1,162.57,480.45,159.07,480.13z"/>
		</g>
		<g>
			<path class="st1" d="M163.96,544.36l-13.22,8.08c0,0-7.37-23.78-9.25-47.84c-1.79-22.98,2.45-37.02,5.91-42.78
				s10.95-12.67,23.62-6.34c12.67,6.34,16.37,24.63,16.37,24.63l-11.48-2.16c0,0-4.03-10.66-9.51-12.39
				c-5.47-1.73-9.36,5.04-10.51,8.79c-1.15,3.74-2.21,27.65-0.72,36.73C156.76,520.74,160.51,538.6,163.96,544.36z"/>
		</g>
		<g>
			<path class="st1" d="M201.87,516.29c0,0-14.72,17.56-22.5,24.19s-24.48,19.88-40.9,18.72c0,0-10.23-1.3-3.46-12.96l5.91-7.63
				l-3.31-11.95c0,0-10.54,11.16-12.96,17.86c-2.45,6.77-1.61,14.65,1.15,18.72c3.02,4.46,10.95,10.95,29.09,6.05
				c18.15-4.9,44.07-25.93,50.99-31.97c6.91-6.05,10.08-10.08,10.08-10.08L201.87,516.29z"/>
		</g>
	</g>
</g>
</svg>
