<?xml version="1.0" encoding="utf-8"?>
<!-- Generator: Adobe Illustrator 26.0.1, SVG Export Plug-In . SVG Version: 6.00 Build 0)  -->
<svg version="1.1" id="Layer_1" xmlns="http://www.w3.org/2000/svg" xmlns:xlink="http://www.w3.org/1999/xlink" x="0px" y="0px"
	 viewBox="0 0 1024 1024" style="enable-background:new 0 0 1024 1024;" xml:space="preserve">
<style type="text/css">
	.st0{fill:#FFFFFF;}
</style>
<rect width="1024" height="1024"/>
<g>
	<g>
		<path class="st0" d="M426.74,394.32v68.31c0,0,103.17,12.52,163.8,46.56c60.63,34.04,76.06,54.8,84.56,64.36
			c8.49,9.56,21.27,37.22-8.49,44.68c-29.76,7.46-53.13,0-53.13,0l-25.59,35.12c0,0,85.07,22.34,117.01-7.46
			c31.9-29.8,26.59-57.45,19.16-78.72c-5.35-15.29-32.12-52.54-82.31-87.73c-28.28-19.79-59.3-35.3-91.94-46.53
			C512.4,420.06,439.66,395.5,426.74,394.32z"/>
	</g>
	<g>
		<path class="st0" d="M444.8,631.49l-48.81,29.84c0,0-27.21-87.81-34.16-176.65c-6.61-84.85,9.05-136.7,21.82-157.96
			c12.78-21.27,40.43-46.78,87.22-23.41c46.78,23.41,60.45,90.95,60.45,90.95l-42.39-7.98c0,0-14.88-39.36-35.12-45.75
			c-20.2-6.39-34.56,18.61-38.81,32.46c-4.25,13.81-8.16,102.1-2.66,135.62C418.21,544.27,432.06,610.22,444.8,631.49z"/>
	</g>
	<g>
		<path class="st0" d="M584.78,527.84c0,0-54.35,64.84-83.08,89.32c-28.73,24.48-90.39,73.41-151.02,69.12
			c0,0-37.77-4.8-12.78-47.85l21.82-28.17l-12.22-44.12c0,0-38.92,41.21-47.85,65.95c-9.05,25-5.94,54.09,4.25,69.12
			c11.15,16.47,40.43,40.43,107.41,22.34c67.02-18.09,162.73-95.75,188.28-118.05c25.51-22.34,37.22-37.22,37.22-37.22
			L584.78,527.84z"/>
	</g>
</g>
</svg>
