<?xml version="1.0" encoding="utf-8"?>
<!-- Generator: Adobe Illustrator 26.0.1, SVG Export Plug-In . SVG Version: 6.00 Build 0)  -->
<svg version="1.1" id="Layer_1" xmlns="http://www.w3.org/2000/svg" xmlns:xlink="http://www.w3.org/1999/xlink" x="0px" y="0px"
	 viewBox="0 0 1024 1024" style="enable-background:new 0 0 1024 1024;" xml:space="preserve">
<style type="text/css">
	.st0{fill:#FFFFFF;}
</style>
<g>
	<g>
		<path class="st0" d="M1196,215.35v18.5c0,0,27.94,3.39,44.36,12.61c16.42,9.22,20.6,14.84,22.9,17.43s5.76,10.08-2.3,12.1
			c-8.06,2.02-14.39,0-14.39,0l-6.93,9.51c0,0,23.04,6.05,31.69-2.02c8.64-8.07,7.2-15.56,5.19-21.32
			c-1.45-4.14-8.7-14.23-22.29-23.76c-7.66-5.36-16.06-9.56-24.9-12.6C1219.2,222.32,1199.5,215.67,1196,215.35z"/>
	</g>
	<g>
		<path class="st0" d="M1200.89,279.58l-13.22,8.08c0,0-7.37-23.78-9.25-47.84c-1.79-22.98,2.45-37.02,5.91-42.78
			c3.46-5.76,10.95-12.67,23.62-6.34c12.67,6.34,16.37,24.63,16.37,24.63l-11.48-2.16c0,0-4.03-10.66-9.51-12.39
			c-5.47-1.73-9.36,5.04-10.51,8.79c-1.15,3.74-2.21,27.65-0.72,36.73C1193.69,255.96,1197.44,273.82,1200.89,279.58z"/>
	</g>
	<g>
		<path class="st0" d="M1238.8,251.51c0,0-14.72,17.56-22.5,24.19c-7.78,6.63-24.48,19.88-40.9,18.72c0,0-10.23-1.3-3.46-12.96
			l5.91-7.63l-3.31-11.95c0,0-10.54,11.16-12.96,17.86c-2.45,6.77-1.61,14.65,1.15,18.72c3.02,4.46,10.95,10.95,29.09,6.05
			c18.15-4.9,44.07-25.93,50.99-31.97c6.91-6.05,10.08-10.08,10.08-10.08L1238.8,251.51z"/>
	</g>
</g>
<g>
	<g>
		<path d="M436.69,400.15v60.41c0,0,91.23,11.07,144.85,41.18c53.62,30.11,67.27,48.46,74.78,56.92
			c7.51,8.46,18.81,32.91-7.51,39.51c-26.32,6.6-46.99,0-46.99,0l-22.63,31.05c0,0,75.23,19.76,103.48-6.6
			c28.21-26.35,23.51-50.81,16.95-69.62c-4.73-13.52-28.41-46.47-72.78-77.58c-25.01-17.5-52.44-31.22-81.31-41.14
			C512.45,422.91,448.12,401.19,436.69,400.15z"/>
	</g>
	<g>
		<path d="M452.66,609.88l-43.17,26.38c0,0-24.07-77.65-30.2-156.21c-5.84-75.04,8-120.88,19.3-139.69
			c11.3-18.81,35.76-41.37,77.13-20.7c41.37,20.7,53.45,80.43,53.45,80.43l-37.49-7.05c0,0-13.16-34.81-31.05-40.46
			c-17.86-5.65-30.56,16.46-34.32,28.7c-3.76,12.21-7.22,90.29-2.35,119.94C429.15,532.76,441.39,591.07,452.66,609.88z"/>
	</g>
	<g>
		<path d="M576.45,518.22c0,0-48.07,57.34-73.47,78.99c-25.4,21.65-79.94,64.92-133.55,61.13c0,0-33.4-4.24-11.3-42.32l19.3-24.91
			l-10.81-39.02c0,0-34.42,36.44-42.32,58.32c-8,22.11-5.26,47.84,3.76,61.13c9.86,14.56,35.76,35.76,94.99,19.76
			c59.27-16,143.9-84.67,166.5-104.39c22.56-19.76,32.91-32.91,32.91-32.91L576.45,518.22z"/>
	</g>
</g>
</svg>
